<svg width="93" height="87" viewBox="0 0 93 87" fill="none" xmlns="http://www.w3.org/2000/svg">
<g clip-path="url(#clip0_882_1031)">
<path d="M0.858643 73.2081H2.27955V61.7793H0.858643V73.2081Z" fill="#141414"/>
<path d="M16.2238 61.7793V70.5959L9.88939 61.7793H8.59766V73.2081H9.9875V64.2941L16.4167 73.2081H17.612V61.7793H16.2238Z" fill="#141414"/>
<path d="M31.5074 61.7793L27.9053 71.0701L24.2524 61.7793H22.686L27.2578 73.2081H28.5675L33.0591 61.7793H31.5074Z" fill="#141414"/>
<path d="M38.1816 73.2081H39.6025V61.7793H38.1816V73.2081Z" fill="#141414"/>
<path d="M49.2974 73.3553C51.5424 73.3553 53.2887 72.131 53.2887 69.9747C53.2887 67.5921 51.2841 67.118 49.5067 66.6768C48.0531 66.3348 46.745 66.0076 46.745 64.7668C46.745 63.673 47.7784 63.0203 49.1519 63.0203C50.5254 63.0203 51.5587 63.7556 51.5587 65.0278H52.9649C52.9649 62.9559 51.5277 61.6489 49.1846 61.6489C46.8414 61.6489 45.3388 62.8402 45.3388 64.8163C45.3388 67.1014 47.2617 67.5756 49.0063 67.9837C50.4763 68.3423 51.8171 68.653 51.8171 69.9913C51.8171 71.2007 50.7036 71.9508 49.281 71.9508C47.7147 71.9508 46.5668 71.1182 46.5668 69.6988H45.1132C45.1132 71.9508 46.8088 73.3553 49.2974 73.3553Z" fill="#141414"/>
<path d="M58.798 73.2081H60.2188V61.7793H58.798V73.2081Z" fill="#141414"/>
<path d="M71.6907 73.4051C75.1163 73.4051 77.6033 70.8737 77.6033 67.5097C77.6033 64.1308 75.1163 61.5996 71.6907 61.5996C68.2652 61.5996 65.7603 64.1308 65.7603 67.5097C65.7603 70.8737 68.2652 73.4051 71.6907 73.4051ZM71.6907 72.0006C69.122 72.0006 67.2155 70.0576 67.2155 67.5097C67.2155 64.9471 69.122 63.004 71.6907 63.004C74.2595 63.004 76.166 64.9305 76.166 67.5097C76.166 70.0741 74.2595 72.0006 71.6907 72.0006Z" fill="#141414"/>
<path d="M90.7886 61.7793V70.5959L84.4542 61.7793H83.1625V73.2081H84.5523V64.2941L90.9815 73.2081H92.1768V61.7793H90.7886Z" fill="#141414"/>
<path d="M22.807 85.7864C23.6933 85.7864 24.3833 85.3039 24.3833 84.453C24.3833 83.5112 23.5919 83.3245 22.8904 83.1494C22.3165 83.0139 21.7998 82.885 21.7998 82.396C21.7998 81.9646 22.2069 81.7052 22.7498 81.7052C23.2927 81.7052 23.6997 81.9961 23.6997 82.4984H24.2557C24.2557 81.6805 23.6867 81.165 22.7629 81.165C21.8374 81.165 21.2438 81.6359 21.2438 82.4157C21.2438 83.3179 22.0025 83.5046 22.6925 83.6665C23.273 83.8069 23.8028 83.9292 23.8028 84.4579C23.8028 84.9354 23.3613 85.2329 22.8005 85.2329C22.1824 85.2329 21.7295 84.9041 21.7295 84.3423H21.1555C21.1555 85.2329 21.8243 85.7864 22.807 85.7864Z" fill="#141414"/>
<path d="M34.8382 86.2704L33.9699 85.2575C34.4621 84.833 34.7548 84.2067 34.7548 83.478C34.7548 82.1447 33.7721 81.145 32.4199 81.145C31.0676 81.145 30.0784 82.1447 30.0784 83.478C30.0784 84.8064 31.0676 85.8061 32.4199 85.8061C32.8286 85.8061 33.2113 85.7152 33.5366 85.5484L34.1497 86.2704H34.8382ZM32.4199 85.251C31.4061 85.251 30.654 84.4843 30.654 83.478C30.654 82.4669 31.4061 81.7002 32.4199 81.7002C33.4353 81.7002 34.1873 82.4602 34.1873 83.478C34.1873 84.0266 33.9633 84.5041 33.6004 84.8198L32.7959 83.8779H32.114L33.1606 85.1039C32.9365 85.1997 32.6879 85.251 32.4199 85.251Z" fill="#141414"/>
<path d="M42.4806 85.8064C43.4828 85.8064 44.2284 85.0777 44.2284 84.0533V81.2163H43.6676V84.007C43.6676 84.7555 43.1705 85.2512 42.4806 85.2512C41.7857 85.2512 41.2951 84.7555 41.2951 84.007V81.2163H40.7261V84.0533C40.7261 85.0777 41.4733 85.8064 42.4806 85.8064Z" fill="#141414"/>
<path d="M53.618 85.7287H54.2246L52.3491 81.2163H51.8259L50.0011 85.7287H50.5946L51.028 84.6514H53.1781L53.618 85.7287ZM52.094 81.9962L52.9689 84.1293H51.2389L52.094 81.9962Z" fill="#141414"/>
<path d="M62.6514 85.7287H63.2842L62.2116 83.8979C62.7986 83.7311 63.2008 83.2337 63.2008 82.5959C63.2008 81.7962 62.5828 81.2163 61.7456 81.2163H60.0499V85.7287H60.6109V83.969H61.6246L62.6514 85.7287ZM60.6109 81.7583H61.7146C62.2623 81.7583 62.6269 82.1119 62.6269 82.5959C62.6269 83.0785 62.2623 83.4271 61.7146 83.4271H60.6109V81.7583Z" fill="#141414"/>
<path d="M69.8227 85.1867V83.6716H71.6213V83.1495H69.8227V81.7583H71.788V81.2163H69.2618V85.7287H71.8583V85.1867H69.8227Z" fill="#141414"/>
<path d="M26.2323 4.06836H36.8784L35.4788 5.44306H26.9124V14.0894L25.552 15.5137V4.06836H26.2323ZM40.752 4.06836H52.286L53.6464 5.44306H39.3916L40.752 4.06836ZM56.1988 4.06836H67.5251V15.5137L66.1255 14.0993V5.44306H57.569L56.1988 4.06836ZM67.5251 19.4295V31.0831L66.1255 32.4578V18.0549L67.5251 19.4295ZM67.5251 35.0386V46.4839H56.1988L57.5592 45.0695H66.1157V36.4232L67.5251 35.0386ZM52.286 46.4839H40.752L39.3916 45.0695H53.6464L52.286 46.4839ZM36.8784 46.4839H25.552V35.0386L26.9124 36.4133V45.0596H35.4689L36.8784 46.4839ZM25.552 31.0831V19.4295L26.9124 18.0549V32.4578L25.552 31.0831Z" fill="#141414"/>
<path d="M51.7716 0.591823L71.1818 20.2059V30.3559L51.5557 50.1782H41.5195L21.8933 30.346C21.8933 26.9489 21.8933 23.5535 21.8933 20.196C28.4092 13.582 34.9643 6.95803 41.5195 0.37207H51.5656L51.7716 0.591823ZM69.7822 20.7627L50.9638 1.74676H42.0721L23.2537 20.7627V29.7478L42.0623 48.7539H50.9539L69.7625 29.7478V20.7627H69.7822Z" fill="#141414"/>
<path d="M47.0013 4.54752L51.9802 9.57703H50.0181L46.5386 6.01143L43.0101 9.57703H41.097L46.5386 4.06836L47.0013 4.54752ZM54.7501 12.376L59.3039 16.9792V18.9107L52.788 12.376H54.7501ZM62.0737 19.7682L67.5251 25.2753L62.0737 30.7839V28.8029L65.5647 25.2753L62.0737 21.7097V19.7682ZM59.3039 33.573L54.7501 38.1762H52.788L59.3039 31.5919V33.573ZM51.99 40.9752L46.5386 46.4839L41.0871 40.9752H43.0002L46.5386 44.5011L50.028 40.9752H51.99ZM38.3271 38.1762L33.7733 33.573V31.5919L40.2402 38.1762H38.3271ZM31.0034 30.7839L25.552 25.2753L31.0034 19.7682V21.6997L27.4732 25.2753L31.0034 28.8029V30.7839ZM33.7733 16.9792L38.3271 12.376H40.2402L33.7733 18.9107V16.9792Z" fill="#141414"/>
<path d="M61.3538 15.6836V35.1276L56.4942 40.0679L55.9825 40.2381H37.0446L36.5819 40.0679L31.6831 35.1177V15.3846L36.7487 10.2642H56.2866L61.3538 15.3846V15.6836ZM59.9836 34.5691V15.9826L55.7257 11.6389H37.3407L33.0435 15.9826V34.5591L37.3407 38.8634H55.7257L59.9836 34.5691Z" fill="#141414"/>
<path d="M47.0005 11.041L52.2361 16.3316L46.5377 22.1377L40.7903 16.3316L46.5377 10.5635L47.0005 11.041ZM50.3229 16.3316L46.5377 12.4553L42.7034 16.3316L46.5377 20.2062L50.3229 16.3316Z" fill="#141414"/>
<path d="M60.6246 25.7447L55.3513 31.0335L49.6432 25.2753L55.3513 19.4692L61.0971 25.2753L60.6246 25.7447ZM55.3513 29.1516L59.1856 25.2753L55.3513 21.4008L51.5562 25.2753L55.3513 29.1516Z" fill="#141414"/>
<path d="M46.0754 39.5112L40.8005 34.181L46.548 28.4146L52.2561 34.181L46.5381 39.9887L46.0754 39.5112ZM42.7038 34.181L46.5381 38.0556L50.3234 34.181L46.5381 30.3461L42.7038 34.181Z" fill="#141414"/>
<path d="M32.4515 24.8075L37.6854 19.479L43.4328 25.2867L37.6854 31.0532L31.9773 25.2751L32.4515 24.8075ZM37.6854 21.4005L33.8511 25.2751L37.6854 29.1514L41.5197 25.2751L37.6854 21.4005Z" fill="#141414"/>
<path d="M47.0008 20.6337L51.5955 25.2749L46.5381 30.3953L41.4709 25.2749L46.5381 20.1562L47.0008 20.6337ZM49.6922 25.2749L46.5381 22.0878L43.384 25.2749L46.5381 28.4638L49.6922 25.2749Z" fill="#141414"/>
</g>
<defs>
<clipPath id="clip0_882_1031">
<rect width="91.3813" height="85.8984" fill="white" transform="translate(0.79541 0.37207)"/>
</clipPath>
</defs>
</svg>
