<svg width="103" height="83" viewBox="0 0 103 83" fill="none" xmlns="http://www.w3.org/2000/svg">
<g clip-path="url(#clip0_882_1057)">
<path d="M6.23063 66.3389L1.65857 82.3286H3.24176L4.37935 78.2707H10.1723L11.3099 82.3286H12.8967L8.32464 66.3389H6.23063ZM7.26677 67.9447L9.78829 76.9506H4.74525L7.26677 67.9447Z" fill="#141414"/>
<path d="M19.704 66.0962H18.2802V79.2866L18.1606 82.3283H19.3381L19.541 80.8671C20.1098 81.8002 21.1061 82.5525 22.7508 82.5525C25.6999 82.5525 26.8772 80.1762 26.8772 77.196V76.7078C26.8772 73.724 25.6999 71.3513 22.7508 71.3513C21.2474 71.3513 20.2728 72.0024 19.704 72.8125V66.0962ZM19.704 74.2918C20.1315 73.5829 20.9648 72.628 22.4284 72.628C24.4609 72.628 25.4137 74.2122 25.4137 76.7078V77.196C25.4137 79.6917 24.4609 81.2722 22.4284 81.2722C20.9648 81.2722 20.1315 80.321 19.704 79.6085V74.2918Z" fill="#141414"/>
<path d="M36.612 81.3556C34.4781 81.3556 33.8876 80.2199 33.8876 79.0409H32.4674V79.1241C32.4674 80.766 33.5652 82.5527 36.612 82.5527C39.2748 82.5527 40.7602 81.2543 40.7602 79.388V79.2868C40.7602 77.3157 39.6009 76.5453 36.8982 76.3211C34.5615 76.1402 34.0325 75.5325 34.0325 74.4149C34.0325 73.2178 34.9853 72.5487 36.612 72.5487C38.6263 72.5487 39.2349 73.5035 39.2349 75.0443H40.637V74.9648C40.637 72.8525 39.561 71.3516 36.612 71.3516C34.0941 71.3516 32.6088 72.5487 32.6088 74.4149V74.5379C32.6088 76.1402 33.442 77.1529 36.3475 77.3988C38.4415 77.5796 39.2966 77.9269 39.2966 79.388C39.2966 80.5852 38.3618 81.3556 36.612 81.3556Z" fill="#141414"/>
<path d="M49.1312 71.5761V68.5308H47.7074V71.5761H46.0011V72.8528H47.7074V79.3449C47.7074 81.6778 49.0298 82.553 50.8593 82.553C51.7107 82.553 52.1998 82.3902 52.3628 82.3288V81.0919C52.1998 81.1714 51.6491 81.2727 51.2035 81.2727C49.8413 81.2727 49.1312 80.8676 49.1312 79.1641V72.8528H52.5657V71.5761H49.1312Z" fill="#141414"/>
<path d="M62.5638 71.3516C61.1219 71.3516 60.1256 72.1038 59.5568 72.9936L59.3539 71.5758H58.1765L58.296 74.6175V82.3285H59.7199V74.3535C60.1655 73.6446 60.9589 72.7295 62.5855 72.7295H62.8681V71.3733C62.85 71.3733 62.7087 71.3516 62.5638 71.3516Z" fill="#141414"/>
<path d="M75.2283 82.3285H76.4057L76.2825 79.2868V75.3481C76.2825 72.9755 75.3696 71.3516 72.3807 71.3516C69.2107 71.3516 68.5006 73.3191 68.5006 74.943V75.1239H69.8628C69.8628 73.7242 70.3302 72.5487 72.3626 72.5487C74.2719 72.5487 74.8624 73.5035 74.8624 75.3481V75.6338L71.609 76.1402C69.8628 76.4042 68.0912 77.0733 68.0912 79.4061V79.6086C68.0912 81.3338 69.2324 82.5527 71.2033 82.5527C73.0727 82.5527 74.29 81.7607 75.0036 80.8275L75.2283 82.3285ZM71.5692 81.3158C70.1237 81.3158 69.515 80.4406 69.515 79.4893V79.3049C69.515 78.0896 70.3483 77.4169 71.7322 77.1745L74.8624 76.6682V79.6086C74.4747 80.238 73.5617 81.3158 71.5692 81.3158Z" fill="#141414"/>
<path d="M83.4767 77.1963V76.708C83.4767 74.2522 84.4113 72.6283 86.5452 72.6283C88.4979 72.6283 89.2914 73.8688 89.2914 75.5109H90.6536V75.1058C90.6536 73.3589 89.4942 71.3516 86.5272 71.3516C83.3752 71.3516 82.0348 73.7242 82.0348 76.708V77.1963C82.0348 80.1765 83.3752 82.5527 86.5272 82.5527C89.4942 82.5527 90.6536 80.625 90.6536 78.9215V78.596H89.2914C89.2914 79.9957 88.5596 81.2724 86.5452 81.2724C84.4113 81.2724 83.4767 79.6484 83.4767 77.1963Z" fill="#141414"/>
<path d="M98.8624 71.5761V68.5308H97.4386V71.5761H95.7322V72.8528H97.4386V79.3449C97.4386 81.6778 98.7609 82.553 100.591 82.553C101.442 82.553 101.931 82.3902 102.094 82.3288V81.0919C101.931 81.1714 101.38 81.2727 100.935 81.2727C99.5725 81.2727 98.8624 80.8676 98.8624 79.1641V72.8528H102.297V71.5761H98.8624Z" fill="#141414"/>
<path d="M74.2155 45.2207H75.5994V46.5988H74.2155V45.2207Z" fill="#141414"/>
<path d="M29.0129 1.48633H30.4113V45.2204H29.0129V1.48633Z" fill="#141414"/>
<path d="M29.0129 45.2207H30.4113V46.5988H29.0129V45.2207Z" fill="#141414"/>
<path d="M74.2155 1.48633H75.5994V45.2204H74.2155V1.48633Z" fill="#141414"/>
<path d="M30.4114 45.2207H74.2155V46.5988H30.4114V45.2207Z" fill="#141414"/>
<path d="M74.2155 0.090332H75.5994V1.48641H74.2155V0.090332Z" fill="#141414"/>
<path d="M29.0129 0.090332H30.4113V1.48641H29.0129V0.090332Z" fill="#141414"/>
<path d="M30.4114 0.090332H74.2155V1.48641H30.4114V0.090332Z" fill="#141414"/>
<path d="M35.208 6.27881H69.0819V40.092H35.208V6.27881Z" fill="#141414"/>
<path d="M45.1311 21.5923H59.3436V24.7461H45.1311V21.5923Z" fill="white"/>
</g>
<defs>
<clipPath id="clip0_882_1057">
<rect width="102.219" height="82.4625" fill="white" transform="translate(0.641418 0.090332)"/>
</clipPath>
</defs>
</svg>
