<svg width="120" height="35" viewBox="0 0 120 35" fill="none" xmlns="http://www.w3.org/2000/svg">
<g clip-path="url(#clip0_882_1118)">
<path fill-rule="evenodd" clip-rule="evenodd" d="M0.493896 0.141602H119.422V34.501H0.493896V0.141602ZM2.10739 1.77776V32.8648H117.809V1.77776H2.10739Z" fill="#141414"/>
<path d="M4.47107 4.03809H59.9333V30.6257H4.47107V4.03809Z" fill="#141414"/>
<path d="M11.4941 21.822H12.527L16.0268 12.8867H14.8555L13.3831 16.6523L12.0105 20.2012L10.6257 16.6523L9.16554 12.8867H7.98206L11.4941 21.822Z" fill="white"/>
<path d="M18.4779 21.822H19.5861V12.8867H18.4779V21.822Z" fill="white"/>
<path d="M26.0439 21.9875C27.9696 21.9875 29.2162 21.0306 29.2162 19.4736C29.2162 18.1581 28.3479 17.3681 26.0946 16.8053C24.3824 16.3845 23.8151 15.9247 23.8151 15.1844C23.8151 14.3286 24.5715 13.7925 25.8302 13.7925C27.1258 13.7925 27.9312 14.4565 27.9574 15.5288H29.0517C29.0394 13.7925 27.8051 12.7202 25.8302 12.7202C23.9027 12.7202 22.6824 13.6788 22.6824 15.1844C22.6824 16.5638 23.6523 17.329 25.8162 17.8527C27.4024 18.2344 28.0694 18.6818 28.0694 19.5127C28.0694 20.3932 27.2904 20.9152 26.0439 20.9152C24.6713 20.9152 23.7153 20.2263 23.689 19.0777H22.5808C22.5948 20.8264 23.9412 21.9875 26.0439 21.9875Z" fill="white"/>
<path d="M32.2084 21.822H33.3166V12.8867H32.2084V21.822Z" fill="white"/>
<path d="M40.8437 21.9875C43.5259 21.9875 45.4132 20.0737 45.4132 17.3538C45.4132 14.6358 43.5259 12.7202 40.8437 12.7202C38.1615 12.7202 36.2865 14.6358 36.2865 17.3538C36.2865 20.0737 38.1615 21.9875 40.8437 21.9875ZM37.4193 17.3538C37.4193 15.2731 38.8163 13.844 40.8437 13.844C42.8711 13.844 44.2682 15.2731 44.2682 17.3538C44.2682 19.4345 42.8711 20.8655 40.8437 20.8655C38.8163 20.8655 37.4193 19.4345 37.4193 17.3538Z" fill="white"/>
<path d="M48.3676 21.822H49.4635V14.8272L54.3359 21.822H55.3671V12.8867H54.2851V19.8815L49.4128 12.8867H48.3676V21.822Z" fill="white"/>
<path d="M68.043 21.7422C70.2332 21.7422 71.5288 20.6947 71.5288 18.9335C71.5288 17.4529 70.5851 16.5847 68.4456 16.1001C67.313 15.8445 66.898 15.5639 66.898 15.1041C66.898 14.6692 67.2744 14.4011 67.8662 14.4011C68.5717 14.4011 68.9744 14.7721 68.9744 15.4486H71.3659C71.3659 13.6111 69.981 12.4233 67.8154 12.4233C65.739 12.4233 64.4557 13.4708 64.4557 15.1556C64.4557 16.6612 65.4239 17.5932 67.4128 17.9766C68.4824 18.1933 68.9989 18.5252 68.9989 19.0365C68.9989 19.4821 68.6225 19.7378 68.0045 19.7378C67.2744 19.7378 66.8472 19.3419 66.8472 18.6531H64.3927C64.3927 20.5811 65.7513 21.7422 68.043 21.7422Z" fill="#141414"/>
<path d="M75.0289 21.5501H77.5587V15.0008H80.2409V12.6147H72.3467V15.0008H75.0289V21.5501Z" fill="#141414"/>
<path d="M85.3119 21.7418C87.691 21.7418 89.1657 20.2736 89.1657 17.8734V12.6147H86.6341V17.7082C86.6341 18.7681 86.1945 19.3291 85.3119 19.3291C84.4317 19.3291 83.9904 18.7681 83.9904 17.7082V12.6147H81.4484V17.8734C81.4484 20.2736 82.9328 21.7418 85.3119 21.7418Z" fill="#141414"/>
<path d="M90.964 21.5501H94.7041C97.5487 21.5501 99.4357 19.7765 99.4357 17.0815C99.4357 14.4008 97.5487 12.6147 94.7041 12.6147H90.964V21.5501ZM93.5061 19.2404V14.9245H94.6266C95.9747 14.9245 96.8436 15.7678 96.8436 17.0815C96.8436 18.3971 95.9747 19.2404 94.6266 19.2404H93.5061Z" fill="#141414"/>
<path d="M100.795 21.5501H103.337V12.6147H100.795V21.5501Z" fill="#141414"/>
<path d="M109.493 21.7422C112.3 21.7422 114.289 19.8141 114.289 17.0819C114.289 14.3514 112.3 12.4233 109.493 12.4233C106.688 12.4233 104.697 14.3514 104.697 17.0819C104.697 19.8141 106.688 21.7422 109.493 21.7422ZM107.277 17.0819C107.277 15.7415 108.196 14.8112 109.493 14.8112C110.804 14.8112 111.709 15.7415 111.709 17.0819C111.709 18.4222 110.804 19.3544 109.493 19.3544C108.196 19.3544 107.277 18.4222 107.277 17.0819Z" fill="#141414"/>
</g>
<defs>
<clipPath id="clip0_882_1118">
<rect width="119.399" height="34.3594" fill="white" transform="translate(0.0515137 0.141602)"/>
</clipPath>
</defs>
</svg>
