<svg width="81" height="70" viewBox="0 0 81 70" fill="none" xmlns="http://www.w3.org/2000/svg">
<g clip-path="url(#clip0_882_1094)">
<path d="M40.5059 1.98732C30.8097 1.98732 22.9211 9.87593 22.9211 19.5721C22.9211 29.2684 30.8097 37.1553 40.5059 37.1553C50.2022 37.1553 58.089 29.2684 58.089 19.5721C58.089 9.87593 50.2022 1.98732 40.5059 1.98732ZM40.5059 38.1824C30.2451 38.1824 21.8956 29.833 21.8956 19.5721C21.8956 9.31136 30.2451 0.961914 40.5059 0.961914C50.7667 0.961914 59.1161 9.31136 59.1161 19.5721C59.1161 29.833 50.7667 38.1824 40.5059 38.1824Z" fill="#141414"/>
<path d="M40.506 4.25073C32.058 4.25073 25.1846 11.1241 25.1846 19.5722C25.1846 28.0203 32.058 34.8937 40.506 34.8937C48.9541 34.8937 55.8275 28.0203 55.8275 19.5722C55.8275 11.1241 48.9541 4.25073 40.506 4.25073ZM40.506 35.9191C31.4917 35.9191 24.1575 28.5865 24.1575 19.5722C24.1575 10.5579 31.4917 3.22363 40.506 3.22363C49.5204 3.22363 56.8529 10.5579 56.8529 19.5722C56.8529 28.5865 49.5204 35.9191 40.506 35.9191Z" fill="#141414"/>
<path d="M40.5059 6.51222C33.3043 6.51222 27.4461 12.3704 27.4461 19.5721C27.4461 26.7736 33.3043 32.6318 40.5059 32.6318C47.7075 32.6318 53.5658 26.7736 53.5658 19.5721C53.5658 12.3704 47.7075 6.51222 40.5059 6.51222ZM40.5059 33.6573C32.7398 33.6573 26.4207 27.3382 26.4207 19.5721C26.4207 11.8058 32.7398 5.48682 40.5059 5.48682C48.2721 5.48682 54.5911 11.8058 54.5911 19.5721C54.5911 27.3382 48.2721 33.6573 40.5059 33.6573Z" fill="#141414"/>
<path d="M40.5059 8.77393C34.5525 8.77393 29.7077 13.6186 29.7077 19.5721C29.7077 25.5255 34.5525 30.3703 40.5059 30.3703C46.4594 30.3703 51.3041 25.5255 51.3041 19.5721C51.3041 13.6186 46.4594 8.77393 40.5059 8.77393ZM40.5059 31.3957C33.9863 31.3957 28.6824 26.0918 28.6824 19.5721C28.6824 13.0524 33.9863 7.74854 40.5059 7.74854C47.0256 7.74854 52.3295 13.0524 52.3295 19.5721C52.3295 26.0918 47.0256 31.3957 40.5059 31.3957Z" fill="#141414"/>
<path d="M40.5061 11.0373C35.7991 11.0373 31.9713 14.8651 31.9713 19.5721C31.9713 24.2791 35.7991 28.107 40.5061 28.107C45.2131 28.107 49.0409 24.2791 49.0409 19.5721C49.0409 14.8651 45.2131 11.0373 40.5061 11.0373ZM40.5061 29.1341C35.2345 29.1341 30.9442 24.8437 30.9442 19.5721C30.9442 14.2989 35.2345 10.0103 40.5061 10.0103C45.7776 10.0103 50.0679 14.2989 50.0679 19.5721C50.0679 24.8437 45.7776 29.1341 40.5061 29.1341Z" fill="#141414"/>
<path d="M40.5062 13.2991C37.0473 13.2991 34.233 16.1134 34.233 19.5722C34.233 23.0311 37.0473 25.8454 40.5062 25.8454C43.965 25.8454 46.7792 23.0311 46.7792 19.5722C46.7792 16.1134 43.965 13.2991 40.5062 13.2991ZM40.5062 26.8708C36.4811 26.8708 33.2076 23.5973 33.2076 19.5722C33.2076 15.5472 36.4811 12.272 40.5062 12.272C44.5312 12.272 47.8047 15.5472 47.8047 19.5722C47.8047 23.5973 44.5312 26.8708 40.5062 26.8708Z" fill="#141414"/>
<path d="M40.5063 15.5606C38.2939 15.5606 36.4948 17.3598 36.4948 19.5721C36.4948 21.7827 38.2939 23.5835 40.5063 23.5835C42.7186 23.5835 44.5177 21.7827 44.5177 19.5721C44.5177 17.3598 42.7186 15.5606 40.5063 15.5606ZM40.5063 24.6089C37.7293 24.6089 35.4694 22.349 35.4694 19.5721C35.4694 16.7951 37.7293 14.5352 40.5063 14.5352C43.2832 14.5352 45.5431 16.7951 45.5431 19.5721C45.5431 22.349 43.2832 24.6089 40.5063 24.6089Z" fill="#141414"/>
<path d="M40.5064 17.8223C39.5422 17.8223 38.7566 18.608 38.7566 19.5721C38.7566 20.5363 39.5422 21.3202 40.5064 21.3202C41.4706 21.3202 42.2562 20.5363 42.2562 19.5721C42.2562 18.608 41.4706 17.8223 40.5064 17.8223ZM40.5064 22.3473C38.976 22.3473 37.7312 21.1025 37.7312 19.5721C37.7312 18.0416 38.976 16.7969 40.5064 16.7969C42.0369 16.7969 43.2816 18.0416 43.2816 19.5721C43.2816 21.1025 42.0369 22.3473 40.5064 22.3473Z" fill="#141414"/>
<path d="M6.01701 57.2086C4.20768 57.2086 2.87619 56.8378 2.02424 56.093C1.26582 55.4367 0.888306 54.5388 0.888306 53.3995C0.888306 52.2619 1.26582 51.3622 2.02424 50.6991C2.87619 49.9611 4.20768 49.5903 6.01701 49.5903C7.07812 49.5903 7.95557 49.7127 8.64938 49.9576C9.34318 50.1991 9.88053 50.529 10.2615 50.9507C10.6458 51.3725 10.9025 51.8554 11.0301 52.3996H7.79912C7.47603 51.8333 6.88256 51.5493 6.01701 51.5493C5.27219 51.5493 4.72633 51.7636 4.37773 52.1887C4.10054 52.5288 3.96281 52.9335 3.96281 53.3995C3.96281 53.8671 4.10054 54.2701 4.37773 54.6102C4.72633 55.0371 5.27219 55.2496 6.01701 55.2496C6.88256 55.2496 7.47603 54.9639 7.79912 54.3926H11.0301C10.9025 54.9418 10.6458 55.4264 10.2615 55.8482C9.88053 56.2699 9.34318 56.6032 8.64938 56.8481C7.95557 57.0878 7.07812 57.2086 6.01701 57.2086Z" fill="#141414"/>
<path d="M22.2413 57.0518H19.3436C19.2076 56.8664 19.1123 56.6301 19.058 56.3444C19.012 56.1268 18.9423 55.9125 18.8471 55.6982C18.7518 55.4857 18.5852 55.3088 18.3505 55.1677C18.1193 55.0282 17.774 54.95 17.3166 54.9364H15.3236V57.0518H12.2491V49.7329H17.2418C18.439 49.7329 19.4014 49.8213 20.1326 49.9982C20.8672 50.175 21.4012 50.4573 21.7379 50.8416C22.0729 51.2226 22.2413 51.7225 22.2413 52.338C22.2413 52.8516 22.1257 53.2835 21.8943 53.6372C21.6631 53.9875 21.2958 54.263 20.7924 54.467C21.2771 54.6677 21.5916 54.9075 21.7379 55.1881C21.8825 55.4703 21.9709 55.7782 22.0032 56.1132C22.0389 56.4125 22.1188 56.7253 22.2413 57.0518ZM15.3236 53.1339L17.0785 53.1271C17.5683 53.1271 17.9526 53.1067 18.2349 53.0659C18.5154 53.0216 18.7212 52.9605 18.8539 52.8822C18.9899 52.8057 19.075 52.7223 19.1123 52.6305C19.1531 52.5353 19.1736 52.4384 19.1736 52.338C19.1736 52.2394 19.1531 52.1408 19.1123 52.0456C19.075 51.9503 18.9899 51.8653 18.8539 51.7871C18.7212 51.7105 18.5154 51.651 18.2349 51.6102C17.9526 51.566 17.5683 51.5422 17.0785 51.5422H15.3236V53.1339Z" fill="#141414"/>
<path d="M32.2772 57.0518H23.4619V49.7329H31.8759V51.5422H26.5364V52.6918H31.0461V54.0997H26.5364V55.2425H32.2772V57.0518Z" fill="#141414"/>
<path d="M44.9784 57.0518H41.8631L41.176 55.8547H36.5575L35.8705 57.0518H32.7552L37.4418 49.7329H40.2918L44.9784 57.0518ZM40.1422 54.0386L38.8702 51.8211L37.5914 54.0386H40.1422Z" fill="#141414"/>
<path d="M51.2898 57.0518H48.2221V51.5422H45.3517V49.7329H54.1602V51.5422H51.2898V57.0518Z" fill="#141414"/>
<path d="M58.3489 57.0518H55.2744V49.7329H58.3489V57.0518Z" fill="#141414"/>
<path d="M66.1928 57.0518H63.336L59.2344 49.7329H62.3497L64.7644 54.9636L67.1791 49.7329H70.2944L66.1928 57.0518Z" fill="#141414"/>
<path d="M79.9935 57.0518H71.1782V49.7329H79.5922V51.5422H74.2527V52.6918H78.7625V54.0997H74.2527V55.2425H79.9935V57.0518Z" fill="#141414"/>
<path d="M16.8409 69.6807C15.8511 69.6807 15.0536 69.5736 14.4465 69.3611C13.8428 69.1485 13.382 68.856 13.0657 68.4835C12.7477 68.1129 12.5352 67.6843 12.4264 67.198H15.6913C15.931 67.5432 16.3137 67.7149 16.8409 67.7149C17.3663 67.7149 17.7523 67.5432 17.9971 67.198C18.0142 67.1623 18.0244 67.1299 18.0244 67.1028C18.0244 67.0126 17.902 66.9447 17.6571 66.8987C17.4156 66.8545 17.0534 66.8205 16.5687 66.7967C15.96 66.7695 15.3206 66.7048 14.6506 66.5994C13.1575 66.3682 12.4127 65.7678 12.4127 64.7969C12.4127 64.7153 12.4162 64.6302 12.4264 64.5384C12.5352 64.0537 12.7477 63.6253 13.0657 63.2528C13.382 62.8821 13.8428 62.5896 14.4465 62.3754C15.0536 62.1628 15.8511 62.0557 16.8409 62.0557C17.8288 62.0557 18.6246 62.1628 19.2283 62.3754C19.8354 62.5896 20.2979 62.8821 20.6159 63.2528C20.9322 63.6253 21.1465 64.0537 21.2554 64.5384H17.9971C17.7523 64.1949 17.3663 64.0214 16.8409 64.0214C16.3137 64.0214 15.931 64.1949 15.6913 64.5384C15.6726 64.5656 15.6641 64.5911 15.6641 64.6132C15.6641 64.6949 15.7798 64.7561 16.011 64.7969C16.2457 64.8377 16.5908 64.8717 17.0449 64.8989C17.4972 64.9261 17.9801 64.972 18.4937 65.035C19.0056 65.0945 19.4868 65.1982 19.9357 65.3479C20.3847 65.4975 20.7333 65.722 20.9832 66.0213C21.1822 66.2491 21.2825 66.5365 21.2825 66.8851C21.2825 66.9855 21.2724 67.0891 21.2554 67.198C21.1465 67.6843 20.9322 68.1129 20.6159 68.4835C20.2979 68.856 19.8354 69.1485 19.2283 69.3611C18.6246 69.5736 17.8288 69.6807 16.8409 69.6807Z" fill="#141414"/>
<path d="M27.9263 69.5241H24.8586V64.0144H21.9882V62.2051H30.7967V64.0144H27.9263V69.5241Z" fill="#141414"/>
<path d="M36.2441 69.6805C34.4569 69.6805 33.2003 69.3115 32.4759 68.5718C31.8637 67.946 31.5576 67.0464 31.5576 65.8714V62.2051H34.6253V65.8714C34.6253 66.3798 34.7103 66.7829 34.8838 67.0821C35.132 67.5038 35.5861 67.7147 36.2441 67.7147C36.9057 67.7147 37.3597 67.5038 37.6045 67.0821C37.7763 66.7744 37.863 66.3713 37.863 65.8714V62.2051H40.9376V65.9122C40.9376 67.0601 40.6331 67.946 40.0261 68.5718C39.2915 69.3115 38.0297 69.6805 36.2441 69.6805Z" fill="#141414"/>
<path d="M47.1036 69.5241H42.2062V62.2051H47.1036C49.1068 62.2051 50.5471 62.484 51.4229 63.0417C52.1303 63.4958 52.5333 64.1131 52.6336 64.8919C52.6778 65.2286 52.7017 65.5517 52.7017 65.8646C52.7017 66.1741 52.6778 66.4972 52.6336 66.8372C52.5928 67.1774 52.4789 67.5072 52.2935 67.8235C52.1116 68.1415 51.8208 68.4272 51.4229 68.6806C51.0232 68.9356 50.474 69.1397 49.7767 69.2928C49.0829 69.4475 48.1919 69.5241 47.1036 69.5241ZM46.8111 67.7147C48.3756 67.7147 49.2598 67.3202 49.4639 66.5312C49.5183 66.3101 49.5455 66.0873 49.5455 65.8646C49.5455 65.6435 49.5149 65.4224 49.4571 65.2047C49.4027 64.9837 49.2836 64.7831 49.1034 64.6062C48.9215 64.426 48.6476 64.2831 48.2803 64.1777C47.9164 64.0688 47.4267 64.0144 46.8111 64.0144H45.2807V67.7147H46.8111Z" fill="#141414"/>
<path d="M56.9931 69.5241H53.9186V62.2051H56.9931V69.5241Z" fill="#141414"/>
<path d="M63.3404 69.6807C61.531 69.6807 60.1996 69.31 59.3477 68.5652C58.5892 67.9037 58.2117 67.0041 58.2117 65.8648C58.2117 64.7323 58.5892 63.8344 59.3477 63.1712C60.1996 62.4281 61.531 62.0557 63.3404 62.0557C65.1498 62.0557 66.4796 62.4281 67.3332 63.1712C68.0899 63.8344 68.4691 64.7323 68.4691 65.8648C68.4691 67.0041 68.0899 67.9037 67.3332 68.5652C66.4796 69.31 65.1498 69.6807 63.3404 69.6807ZM63.3404 67.7149C64.0784 67.7149 64.6226 67.5041 64.9729 67.0824C65.2484 66.7388 65.3878 66.3325 65.3878 65.8648C65.3878 65.3988 65.2484 64.9942 64.9729 64.6541C64.6226 64.2289 64.0784 64.0147 63.3404 64.0147C62.5956 64.0147 62.0497 64.2289 61.7011 64.6541C61.4239 64.9942 61.2862 65.3988 61.2862 65.8648C61.2862 66.3325 61.4239 66.7388 61.7011 67.0824C62.0497 67.5041 62.5956 67.7149 63.3404 67.7149Z" fill="#141414"/>
</g>
<defs>
<clipPath id="clip0_882_1094">
<rect width="79.8855" height="68.7187" fill="white" transform="translate(0.808228 0.961914)"/>
</clipPath>
</defs>
</svg>
