<svg width="100" height="87" viewBox="0 0 100 87" fill="none" xmlns="http://www.w3.org/2000/svg">
<g clip-path="url(#clip0_882_1078)">
<path d="M2.9297 86.1587H0.518311V76.6855H2.9297V86.1587Z" fill="#141414"/>
<path d="M16.676 86.1587H14.5483L10.1915 80.333V86.1587H7.93213V76.6855H10.0598L14.4266 82.5316V76.6855H16.676V86.1587Z" fill="#141414"/>
<path d="M38.3322 86.1592H36.2045L36.1943 80.0092L33.9248 85.2169H32.3544L30.0848 80.0092V86.1592H27.9268V76.6758H30.5711L33.1345 82.3192L35.708 76.6758H38.3322V86.1592Z" fill="#141414"/>
<path d="M47.8464 76.6045C49.3105 76.6045 50.5314 77.0655 51.5041 77.9824C52.4818 78.8943 52.9731 80.0367 52.9731 81.407C52.9731 82.7925 52.4818 83.9501 51.5041 84.8822C50.5237 85.8093 49.3003 86.2703 47.8363 86.2703C46.3773 86.2703 45.1615 85.8093 44.1888 84.8822C43.2161 83.9577 42.7299 82.8001 42.7299 81.407C42.7299 80.029 43.2161 78.8842 44.1888 77.9723C45.1615 77.0605 46.3799 76.6045 47.8464 76.6045ZM47.8667 78.6207C47.1296 78.6207 46.4989 78.8918 45.972 79.4313C45.4503 79.9658 45.1919 80.6319 45.1919 81.4273C45.1919 82.2175 45.4553 82.8862 45.9822 83.4334C46.5091 83.9805 47.1372 84.2541 47.8667 84.2541C48.5962 84.2541 49.2142 83.9805 49.7208 83.4334C50.2324 82.8862 50.4909 82.2175 50.4909 81.4273C50.4909 80.6319 50.2324 79.9658 49.7208 79.4313C49.2142 78.8918 48.5962 78.6207 47.8667 78.6207Z" fill="#141414"/>
<path d="M64.5928 78.6211H61.7356V86.1592H59.3243V78.6211H56.4976V76.6758H64.5928V78.6211Z" fill="#141414"/>
<path d="M71.137 86.1587H68.7256V76.6855H71.137V86.1587Z" fill="#141414"/>
<path d="M80.6376 76.6045C82.1017 76.6045 83.3226 77.0655 84.2952 77.9824C85.2729 78.8943 85.7644 80.0367 85.7644 81.407C85.7644 82.7925 85.2729 83.9501 84.2952 84.8822C83.315 85.8093 82.0916 86.2703 80.6274 86.2703C79.1685 86.2703 77.9527 85.8093 76.98 84.8822C76.0074 83.9577 75.521 82.8001 75.521 81.407C75.521 80.029 76.0074 78.8842 76.98 77.9723C77.9527 77.0605 79.171 76.6045 80.6376 76.6045ZM80.6579 78.6207C79.9208 78.6207 79.2901 78.8918 78.7632 79.4313C78.2414 79.9658 77.9831 80.6319 77.9831 81.4273C77.9831 82.2175 78.2466 82.8862 78.7733 83.4334C79.3002 83.9805 79.9284 84.2541 80.6579 84.2541C81.3874 84.2541 82.0055 83.9805 82.5121 83.4334C83.0237 82.8862 83.282 82.2175 83.282 81.4273C83.282 80.6319 83.0237 79.9658 82.5121 79.4313C82.0055 78.8918 81.3874 78.6207 80.6579 78.6207Z" fill="#141414"/>
<path d="M98.8842 86.1587H96.7565L92.3998 80.333V86.1587H90.1404V76.6855H92.2681L96.6349 82.5316V76.6855H98.8842V86.1587Z" fill="#141414"/>
<path d="M70.0586 60.6209H19.6273V10.1465H70.0586V60.6209ZM20.4327 59.8154H69.2531V10.952H20.4327V59.8154Z" fill="#141414"/>
<path d="M74.6179 55.5198H24.1891V5.04541H74.6179V55.5198ZM24.992 54.7142H73.8124V5.85089H24.992V54.7142Z" fill="#141414"/>
<path d="M79.4455 50.849H29.0167V0.37207H79.4455V50.849ZM29.8222 50.0435H78.6426V1.17755H29.8222V50.0435Z" fill="#141414"/>
<path d="M35.8025 33.2422H46.9551V44.3973H35.8025V33.2422Z" fill="#141414"/>
</g>
<defs>
<clipPath id="clip0_882_1078">
<rect width="98.7832" height="85.8984" fill="white" transform="translate(0.218384 0.37207)"/>
</clipPath>
</defs>
</svg>
